<?xml version="1.0" encoding="UTF-8" standalone="no"?>
<!-- Created with Inkscape (http://www.inkscape.org/) -->

<svg
   width="24mm"
   height="23.999996mm"
   viewBox="0 0 24 23.999996"
   version="1.1"
   id="svg1"
   xml:space="preserve"
   xmlns="http://www.w3.org/2000/svg"
   xmlns:svg="http://www.w3.org/2000/svg"><defs
     id="defs1"><linearGradient
       id="swatch46"><stop
         style="stop-color:#000000;stop-opacity:1;"
         offset="0"
         id="stop46" /></linearGradient><linearGradient
       id="swatch9"><stop
         style="stop-color:#000000;stop-opacity:1;"
         offset="0"
         id="stop9" /></linearGradient></defs><g
     id="layer3"
     style="display:inline"
     transform="translate(-36.098405,-48.000005)"><g
       id="g189"><rect
         style="display:inline;fill:#365d98;fill-opacity:1;stroke:#000000;stroke-width:0.196809;stroke-opacity:1"
         id="rect4-2-4-8-0"
         width="23.80319"
         height="23.80319"
         x="36.196812"
         y="48.098404"
         ry="4.5" /><path
         style="opacity:1;fill:#d4af37;fill-opacity:1;fill-rule:nonzero;stroke:#302525;stroke-width:0.116303;stroke-miterlimit:4;stroke-dasharray:none;stroke-dashoffset:0;stroke-opacity:1"
         d="m 47.256002,68.862772 c 0,-2.108007 -0.0049,-2.252267 -0.07659,-2.271753 -0.04212,-0.01145 -0.194754,-0.04186 -0.339177,-0.06759 -0.144424,-0.02574 -0.301977,-0.064 -0.350119,-0.08503 -0.04814,-0.02104 -0.314014,-0.07779 -0.590824,-0.126114 -0.276814,-0.04832 -0.596843,-0.116812 -0.711177,-0.152194 l -0.207883,-0.06433 V 65.429115 64.76247 l 0.186,0.02925 c 0.102301,0.01609 0.205695,0.04349 0.229765,0.06089 0.02405,0.0174 0.280095,0.07314 0.568942,0.12385 0.288848,0.05071 0.603954,0.117028 0.700237,0.147369 0.09628,0.03035 0.268607,0.06852 0.382941,0.08486 l 0.207883,0.02968 v -3.55231 -3.552323 H 43.886113 40.516225 V 57.445087 56.756438 H 43.886113 47.256 v -2.02421 -2.02421 H 45.833645 44.41129 V 51.998501 51.288984 H 45.833645 47.256 v -1.210353 -1.210352 h 0.744001 0.744001 v 1.210352 1.210353 h 1.422355 1.422355 v 0.709517 0.709517 h -1.422355 -1.422355 v 2.02421 2.02421 h 3.369887 3.369888 v 0.688649 0.688649 h -3.37012 -3.370119 l 0.01117,3.766701 0.01117,3.7667 0.700236,0.138424 c 0.38513,0.07613 0.892255,0.17729 1.126943,0.224789 l 0.426707,0.08637 v 0.676035 0.676031 l -0.448589,-0.07864 c -0.246725,-0.04325 -0.487977,-0.09588 -0.536119,-0.116962 -0.06958,-0.03048 -1.184092,-0.249616 -1.269465,-0.249616 -0.01187,0 -0.0216,0.920285 -0.0216,2.045078 v 2.045079 H 47.99999 47.255988 Z"
         id="path189" /></g></g></svg>
