<?xml version="1.0" encoding="UTF-8" standalone="no"?>
<!-- Created with Inkscape (http://www.inkscape.org/) -->

<svg
   width="23.999996mm"
   height="24mm"
   viewBox="0 0 23.999996 24"
   version="1.1"
   id="svg1"
   xml:space="preserve"
   xmlns="http://www.w3.org/2000/svg"
   xmlns:svg="http://www.w3.org/2000/svg"><defs
     id="defs1"><linearGradient
       id="swatch46"><stop
         style="stop-color:#000000;stop-opacity:1;"
         offset="0"
         id="stop46" /></linearGradient><linearGradient
       id="swatch9"><stop
         style="stop-color:#000000;stop-opacity:1;"
         offset="0"
         id="stop9" /></linearGradient></defs><g
     id="layer3"
     style="display:inline"
     transform="translate(-99.999995,-4.0000001)"><g
       id="g138"><rect
         style="display:inline;fill:#0074c1;fill-opacity:1;stroke:#000000;stroke-width:0.196809;stroke-opacity:1"
         id="rect4-2-1"
         width="23.80319"
         height="23.80319"
         x="100.0984"
         y="4.0984044"
         ry="4.5" /><rect
         style="opacity:1;fill:#447821;fill-opacity:1;fill-rule:nonzero;stroke:#000000;stroke-width:0.0215392;stroke-miterlimit:4;stroke-dasharray:none;stroke-dashoffset:0;stroke-opacity:1"
         id="rect123"
         width="18.000002"
         height="2.9999998"
         x="103"
         y="23.999998"
         ry="1.3" /><rect
         style="opacity:1;fill:#f0d5b6;fill-opacity:1;fill-rule:nonzero;stroke:#000000;stroke-width:0.0238125;stroke-miterlimit:4;stroke-dasharray:none;stroke-dashoffset:0;stroke-opacity:1"
         id="rect124"
         width="11.904497"
         height="1.5152982"
         x="104.04775"
         y="21.00275" /><rect
         style="opacity:1;fill:#deb887;fill-opacity:1;fill-rule:nonzero;stroke:#000000;stroke-width:0.0238125;stroke-miterlimit:4;stroke-dasharray:none;stroke-dashoffset:0;stroke-opacity:1"
         id="rect125"
         width="1.868505"
         height="4.0042362"
         x="105.03836"
         y="16.997881" /><rect
         style="fill:#deb887;fill-opacity:1;fill-rule:nonzero;stroke:#000000;stroke-width:0.0238125;stroke-miterlimit:4;stroke-dasharray:none;stroke-dashoffset:0;stroke-opacity:1"
         id="rect125-0"
         width="1.8704306"
         height="4.0027518"
         x="109.06477"
         y="16.999735" /><rect
         style="fill:#deb887;fill-opacity:1;fill-rule:nonzero;stroke:#000000;stroke-width:0.0238125;stroke-miterlimit:4;stroke-dasharray:none;stroke-dashoffset:0;stroke-opacity:1"
         id="rect125-2"
         width="1.8692329"
         height="4.0027518"
         x="113.06538"
         y="17" /><rect
         style="fill:#deb887;fill-opacity:1;fill-rule:nonzero;stroke:#000000;stroke-width:0.0238125;stroke-miterlimit:4;stroke-dasharray:none;stroke-dashoffset:0;stroke-opacity:1"
         id="rect125-9"
         width="1.9899328"
         height="1.461964"
         x="104.97765"
         y="22.538034" /><rect
         style="fill:#deb887;fill-opacity:1;fill-rule:nonzero;stroke:#000000;stroke-width:0.0238125;stroke-miterlimit:4;stroke-dasharray:none;stroke-dashoffset:0;stroke-opacity:1"
         id="rect125-2-6"
         width="1.9899328"
         height="1.461964"
         x="112.98742"
         y="22.538034" /><rect
         style="opacity:1;fill:#2e4a3a;fill-opacity:1;fill-rule:nonzero;stroke:#000000;stroke-width:0.0462985;stroke-miterlimit:4;stroke-dasharray:none;stroke-dashoffset:0;stroke-opacity:1"
         id="rect126"
         width="11.907756"
         height="0.80956507"
         x="104.04613"
         y="19.595217" /><rect
         style="fill:#f0d5b6;fill-opacity:1;fill-rule:nonzero;stroke:#000000;stroke-width:0.0238125;stroke-miterlimit:4;stroke-dasharray:none;stroke-dashoffset:0;stroke-opacity:1"
         id="rect126-6"
         width="11.907756"
         height="0.80956507"
         x="104.04613"
         y="19.595217" /><rect
         style="fill:#f0d5b6;fill-opacity:1;fill-rule:nonzero;stroke:#000000;stroke-width:0.0238125;stroke-miterlimit:4;stroke-dasharray:none;stroke-dashoffset:0;stroke-opacity:1"
         id="rect126-6-1"
         width="11.907756"
         height="0.80956507"
         x="104.04613"
         y="18.388056" /><rect
         style="fill:#f0d5b6;fill-opacity:1;fill-rule:nonzero;stroke:#000000;stroke-width:0.0238125;stroke-miterlimit:4;stroke-dasharray:none;stroke-dashoffset:0;stroke-opacity:1"
         id="rect126-6-1-1"
         width="11.907756"
         height="0.80956507"
         x="104.04613"
         y="17.180895" /><rect
         style="fill:#552200;fill-opacity:1;fill-rule:nonzero;stroke:#000000;stroke-width:0.0238125;stroke-miterlimit:4;stroke-dasharray:none;stroke-dashoffset:0;stroke-opacity:1"
         id="rect127-2"
         width="1.0942932"
         height="8.4989605"
         x="117.68851"
         y="15.489133" /><path
         style="opacity:1;fill:#5aa02c;fill-opacity:1;fill-rule:nonzero;stroke:#000000;stroke-width:0.0238125;stroke-miterlimit:4;stroke-dasharray:none;stroke-dashoffset:0;stroke-opacity:1"
         d="m 117.68685,15.503449 c -0.002,0.01432 -0.005,0.04294 -0.005,0.04299 -1e-5,5.7e-5 0.003,-0.02856 -0.0356,-0.02081 -0.0389,0.0078 -0.12013,0.05201 -0.18023,0.07414 -0.0601,0.02213 -0.099,0.02213 -0.23155,0.02213 -0.13255,0 -0.35861,0 -0.49504,-0.0078 -0.13644,-0.0078 -0.18314,-0.02337 -0.22605,-0.03117 -0.0429,-0.0078 -0.0819,-0.0078 -0.11306,-0.0156 -0.0312,-0.0078 -0.0546,-0.02339 -0.10912,-0.03897 -0.0546,-0.01558 -0.14035,-0.03118 -0.19492,-0.04677 -0.0546,-0.01559 -0.078,-0.03118 -0.10528,-0.04288 -0.0273,-0.0117 -0.0585,-0.0195 -0.0819,-0.03119 -0.0233,-0.01169 -0.0389,-0.02728 -0.074,-0.05067 -0.0351,-0.02339 -0.0896,-0.05456 -0.13642,-0.08964 -0.0468,-0.03509 -0.0858,-0.07407 -0.12474,-0.101347 -0.039,-0.02728 -0.078,-0.04288 -0.13251,-0.08573 -0.0545,-0.04285 -0.12471,-0.113037 -0.17929,-0.163713 -0.0546,-0.05068 -0.0935,-0.08182 -0.14029,-0.140303 -0.0468,-0.05849 -0.10136,-0.144222 -0.13254,-0.202709 -0.0312,-0.05849 -0.039,-0.08962 -0.0663,-0.148089 -0.0273,-0.05847 -0.074,-0.144188 -0.10139,-0.191022 -0.0273,-0.04683 -0.035,-0.05453 -0.0389,-0.07012 -0.004,-0.01559 -0.004,-0.03897 -0.0234,-0.09744 -0.0195,-0.05847 -0.0585,-0.152026 -0.0819,-0.218299 -0.0234,-0.06627 -0.0312,-0.105205 -0.0546,-0.175369 -0.0234,-0.07016 -0.0624,-0.171512 -0.0818,-0.245558 -0.0195,-0.07405 -0.0195,-0.120827 -0.0234,-0.16372 -0.004,-0.04289 -0.0117,-0.08182 0.0351,-0.307891 0.0468,-0.226067 0.14811,-0.639222 0.17539,-0.896474 0.0273,-0.257253 -0.0195,-0.358566 -0.0585,-0.420945 -0.039,-0.06238 -0.0702,-0.08578 -0.12081,-0.140343 -0.0506,-0.05456 -0.1208,-0.140294 -0.17926,-0.226048 -0.0585,-0.08575 -0.10523,-0.17147 -0.18319,-0.296204 -0.078,-0.124734 -0.18709,-0.288439 -0.25335,-0.41317 -0.0662,-0.124731 -0.0896,-0.210488 -0.11688,-0.31572 -0.0273,-0.105233 -0.0584,-0.229967 -0.074,-0.3079122 -0.0156,-0.077946 -0.0156,-0.1091276 -0.0234,-0.1403091 -0.008,-0.031181 -0.0234,-0.062363 -0.0273,-0.1598095 -0.004,-0.097447 0.004,-0.2611402 0.0234,-0.3702826 0.0195,-0.1091423 0.0507,-0.1637239 0.0818,-0.2455652 0.0312,-0.081841 0.0623,-0.1909851 0.0935,-0.2650405 0.0312,-0.074055 0.0624,-0.1130485 0.0974,-0.1753994 0.0351,-0.062351 0.074,-0.1481087 0.11302,-0.2104687 0.039,-0.06236 0.078,-0.1013486 0.10136,-0.1286611 0.0234,-0.027313 0.0312,-0.042822 0.0429,-0.054514 0.0117,-0.011693 0.0273,-0.019489 0.0429,-0.03508 0.0156,-0.015591 0.0312,-0.038976 0.0857,-0.07015 0.0546,-0.031174 0.14814,-0.070167 0.2261,-0.1091516 0.078,-0.038984 0.14031,-0.077946 0.23385,-0.1286145 0.0935,-0.050669 0.21827,-0.1130341 0.30013,-0.155913 0.0819,-0.042879 0.12085,-0.066275 0.14812,-0.077958 0.0273,-0.011683 0.0429,-0.011683 0.0936,-0.054571 0.0507,-0.042888 0.13641,-0.1286135 0.17928,-0.1753813 0.0429,-0.046768 0.0429,-0.05457 0.0468,-0.066303 0.004,-0.011733 0.0117,-0.027242 0.0234,-0.042833 0.0117,-0.015591 0.0273,-0.031181 0.039,-0.05459 0.0117,-0.023409 0.0195,-0.054544 0.0429,-0.085731 0.0234,-0.031187 0.0624,-0.06238 0.0858,-0.089682 0.0234,-0.027302 0.0312,-0.050628 0.0624,-0.1285877 0.0312,-0.077959 0.0857,-0.2104677 0.12863,-0.3001148 0.0429,-0.089647 0.0741,-0.1364192 0.0897,-0.1714984 0.0156,-0.035079 0.0156,-0.058465 0.0429,-0.09745 0.0273,-0.038985 0.0818,-0.093534 0.11693,-0.1364094 0.0351,-0.042875 0.0507,-0.074057 0.0897,-0.1130424 0.039,-0.038985 0.10134,-0.085742 0.13644,-0.1169629 0.0351,-0.031221 0.0429,-0.046731 0.0741,-0.066225 0.0312,-0.019494 0.0857,-0.042867 0.37026,-0.1091276 0.28453,-0.066261 0.79903,-0.1753972 1.11084,-0.2143733 0.31182,-0.038976 0.42095,-0.0078 0.60025,0.046772 0.17929,0.054568 0.42874,0.1325215 0.57686,0.1831967 0.14812,0.050675 0.19484,0.074032 0.23774,0.089634 0.0429,0.015602 0.0819,0.023403 0.10917,0.035092 0.0273,0.011689 0.0429,0.027279 0.0585,0.038971 0.0156,0.011693 0.0312,0.019489 0.043,0.023387 0.0118,0.0039 0.0194,0.0039 0.0389,0.023394 0.0195,0.019497 0.0507,0.05849 0.1325,0.1403248 0.0818,0.081835 0.21435,0.2065607 0.3001,0.3118026 0.0858,0.1052418 0.12473,0.1909995 0.15202,0.249456 0.0273,0.058457 0.0429,0.089638 0.0585,0.1130231 0.0156,0.023385 0.0312,0.038977 0.0429,0.062387 0.0117,0.02341 0.0195,0.054544 0.0312,0.081828 0.0117,0.027284 0.0273,0.05067 0.0468,0.1052413 0.0195,0.054572 0.0429,0.1403291 0.074,0.2104835 0.0312,0.070154 0.0702,0.1247317 0.0974,0.1714944 0.0273,0.046763 0.0429,0.08574 0.0974,0.1441942 0.0546,0.058454 0.14813,0.1364309 0.24169,0.2182955 0.0936,0.081865 0.18707,0.1675871 0.26504,0.2221598 0.078,0.054573 0.1403,0.077948 0.17928,0.097436 0.039,0.019488 0.0546,0.035078 0.0741,0.042873 0.0195,0.0078 0.0429,0.0078 0.0624,0.015591 0.0195,0.0078 0.0351,0.023385 0.0585,0.038983 0.0234,0.015597 0.0546,0.031201 0.1364,0.081858 0.0818,0.050657 0.21434,0.1364055 0.31958,0.2689352 0.10524,0.1325297 0.18319,0.3118071 0.23386,0.4209416 0.0507,0.1091346 0.0741,0.1481115 0.10136,0.2260692 0.0273,0.077958 0.0585,0.1948962 0.074,0.2650466 0.0156,0.07015 0.0156,0.093535 0.0273,0.1169216 0.0117,0.023386 0.0351,0.046772 0.0585,0.1598046 0.0234,0.1130328 0.0468,0.3157122 -0.0156,0.5378802 -0.0624,0.222167 -0.21047,0.463823 -0.33909,0.627527 -0.12863,0.163704 -0.23776,0.249449 -0.31183,0.304023 -0.0741,0.05457 -0.11306,0.07797 -0.14033,0.140322 -0.0273,0.06235 -0.0429,0.163693 -0.0312,0.284524 0.0117,0.120831 0.0507,0.261154 0.078,0.343 0.0273,0.08185 0.0429,0.105229 0.0663,0.163699 0.0234,0.05847 0.0546,0.152027 0.0818,0.218279 0.0273,0.06625 0.0507,0.105224 0.0624,0.140303 0.0117,0.03508 0.0117,0.06626 0.0195,0.09354 0.008,0.02729 0.0234,0.05067 0.039,0.09354 0.0156,0.04287 0.0312,0.105239 0.039,0.190988 0.008,0.08575 0.008,0.194884 -0.0117,0.370282 -0.0195,0.175398 -0.0585,0.417057 -0.0858,0.565167 -0.0273,0.148109 -0.0429,0.202674 -0.0741,0.261145 -0.0312,0.05847 -0.0779,0.1208 -0.11304,0.187072 -0.0351,0.06627 -0.0585,0.13643 -0.12476,0.237769 -0.0663,0.101338 -0.1754,0.233863 -0.27286,0.327418 -0.0975,0.09356 -0.18317,0.1481 -0.24944,0.183182 -0.0663,0.03508 -0.11298,0.05065 -0.14419,0.06625 -0.0312,0.0156 -0.0468,0.03119 -0.0897,0.05458 -0.0429,0.02339 -0.11302,0.05456 -0.15589,0.07795 -0.0429,0.02339 -0.0585,0.03898 -0.0936,0.05457 -0.0351,0.01559 -0.0896,0.03117 -0.17538,0.05846 -0.0857,0.02728 -0.20268,0.06626 -0.28454,0.09745 -0.0819,0.03119 -0.12858,0.05454 -0.17538,0.07015 -0.0468,0.0156 -0.0935,0.02339 -0.12862,0.03509 -0.0351,0.0117 -0.0585,0.02729 -0.0936,0.03508 -0.0351,0.0078 -0.0818,0.0078 -0.14806,0.01169 -0.0663,0.0039 -0.15206,0.0117 -0.2495,0.01949 -0.0974,0.0078 -0.20657,0.01559 -0.28454,0.01949 -0.078,0.0039 -0.12467,0.0039 -0.16758,0.0078 -0.0429,0.0039 -0.0819,0.0117 -0.11697,0.0078 -0.0351,-0.0039 -0.0663,-0.01951 -0.0896,-0.02729 -0.0234,-0.0078 -0.039,-0.0078 -0.0468,-0.01168 -0.008,-0.0039 -0.008,-0.01169 -0.0118,-0.01559 -0.004,-0.0039 -0.0116,-0.0039 -0.0194,-0.01173 -0.008,-0.0078 -0.0156,-0.02335 -0.0234,-0.03509 -0.008,-0.01174 -0.0155,-0.01944 -0.008,-0.02723 0.008,-0.0078 0.0312,-0.01559 0.0468,-0.02733 0.0156,-0.01173 0.0234,-0.02724 0.0313,-0.03504 0.008,-0.0078 0.0155,-0.0078 0.008,-0.0078 -0.008,0 -0.0312,0 -0.0663,-0.0039 -0.0351,-0.0039 -0.0818,-0.01168 -0.13251,-0.01949 -0.0507,-0.0078 -0.10525,-0.01559 -0.21438,-0.01949 -0.10913,-0.0039 -0.27284,-0.0039 -0.38814,0.0052 -0.1153,0.0091 -0.18223,0.02716 -0.21568,0.03622 -0.0335,0.0091 -0.0337,0.009 -0.0353,0.02335 z"
         id="path134"
         transform="matrix(1,0,0,1.0053611,0,-0.02987137)" /></g></g></svg>
